<svg xmlns="http://www.w3.org/2000/svg" width="282.709" height="457.585" viewBox="0 0 282.709 457.585">
  <g id="Group_1" data-name="Group 1" transform="translate(-86.792 -67)">
    <path id="Path_1" data-name="Path 1" d="M134,223s-21,77,28,179,171,15,175,0,24-64-12-179S134,223,134,223Z" fill="rgba(255,191,191,0.27)" stroke="#707070" stroke-width="1"/>
    <path id="Path_2" data-name="Path 2" d="M217.78,392.143" fill="none" stroke="#707070" stroke-width="1"/>
    <path id="Path_3" data-name="Path 3" d="M209.377,392.143c-4.552-5.252,10.5-10.5,34.663-12.254s18.907,0,18.907,0,3.851-2.8,33.612-8.753-39.564,18.907-39.564,18.907S213.928,397.4,209.377,392.143Z" fill="none" stroke="#707070" stroke-width="1"/>
    <path id="Path_4" data-name="Path 4" d="M237.834,349.112a362.824,362.824,0,0,0-64.462,26.627c-5.066,2.714-24.868-18.184-33.728-43.2-10.671-30.126-10.226-65.262-11.834-57.988-5.585,25.248,19.717,117.25,18.935,127.81-1.183,15.976-17.751-11.834,16.568,37.278s60.876,65.089,74.521,66.864,54.473,27.219,67.491,13.609,68.047-26.627,58.58-52.663,9.467-17.751,4.142-56.213S375.739,364.5,357.4,344.97c-13.941-14.84-19.167-105.617-30.769-105.917-3.269-.087,3.787,83.053-4.734,84.615-35.5,6.509-26.627,4.734-46.154,15.385s-24.887,13.018-37.905,10.059" fill="#fff" stroke="#000" stroke-width="1"/>
    <path id="Path_5" data-name="Path 5" d="M295.992,373.559c-10.234,1.347-22.085,5.387-39.322,10.773s-41.207,3.5-41.207,3.5,21.815,41.16,46.075,31.693S295.992,373.559,295.992,373.559Z" fill="#ac0000" stroke="#707070" stroke-width="1"/>
    <path id="Path_6" data-name="Path 6" d="M341.521,218.935c-81.657,81.657-211.994,55.621-211.994,55.621s-95.556-30.769-20.408-55.621,3.9-1.775,15.734-4.734-32.444-19.976,7.793-23.526c18.187-1.6,2.543-5.769,4.734-13.018,2.489-8.214,40.3-19.572,28.3-17.3-21.893,4.142-7,2.959-14.1-5.325-.845-.986,13.023-4.352,14.1-5.183,5.909-4.674,8.594,5.931,6.509-6.059-2.367-13.609-4.734-18.935,20.71-18.343s13.018-30.177,30.177-37.87,34.32,28.4,34.32,34.911,39.154,1.917,19.036,13.16,1.183,2.959,26.627,14.2c8.829,3.9-5.183,14.509-3.55,15.385,2.32,1.187,21.386,5.351,15.976,25.444-8.284,30.769,37.87,27.668,15.385,28.26S341.521,218.935,341.521,218.935Z" transform="translate(7 4)" fill="#ab0000" stroke="#000" stroke-width="1"/>
    <g id="Ellipse_1" data-name="Ellipse 1" transform="translate(218 67)" fill="#fff" stroke="#000" stroke-width="1">
      <circle cx="13.5" cy="13.5" r="13.5" stroke="none"/>
      <circle cx="13.5" cy="13.5" r="13" fill="none"/>
    </g>
  </g>
</svg>
